<svg width="400" height="400" viewBox="0 0 400 400" fill="none" xmlns="http://www.w3.org/2000/svg">
<path d="M400 200C400 310.457 310.457 400 200 400C89.5431 400 0 310.457 0 200C0 89.5431 89.5431 0 200 0C310.457 0 400 89.5431 400 200Z" fill="#1CC0C5"/>
<circle cx="200" cy="221" r="100" fill="#D9D9D9"/>
<rect x="318.5" y="178.5" width="28" height="78" rx="3.5" fill="#D9D9D9" stroke="black"/>
<path d="M200 146C241.421 146 275 179.579 275 221C275 262.421 241.421 296 200 296C158.579 296 125 262.421 125 221C125 179.579 158.579 146 200 146Z" fill="black"/>
<path d="M200 171C227.614 171 250 193.386 250 221C250 248.614 227.614 271 200 271C172.386 271 150 248.614 150 221C150 193.386 172.386 171 200 171Z" fill="#D9D9D9"/>
<rect x="257.716" y="292.151" width="57.9954" height="19" transform="rotate(-135 257.716 292.151)" fill="black" stroke="black"/>
<path d="M314.5 199H318V237H314.5C312.015 237 310 234.985 310 232.5V203.5C310 201.015 312.015 199 314.5 199Z" fill="#D9D9D9" stroke="black"/>
<rect x="-0.5" y="0.5" width="28" height="78" rx="3.5" transform="matrix(-1 0 0 1 81 178)" fill="#D9D9D9" stroke="black"/>
<path d="M85.5 199H82V237H85.5C87.9853 237 90 234.985 90 232.5V203.5C90 201.015 87.9853 199 85.5 199Z" fill="#D9D9D9" stroke="black"/>
<mask id="path-10-inside-1_20_134" fill="white">
<path d="M342 178C342 164.868 338.314 151.864 331.153 139.732C323.992 127.599 313.495 116.575 300.263 107.289C287.03 98.0035 271.321 90.6375 254.032 85.612C236.743 80.5866 218.213 78 199.5 78C180.787 78 162.257 80.5866 144.968 85.612C127.679 90.6375 111.97 98.0035 98.7373 107.289C85.5049 116.575 75.0085 127.599 67.8472 139.732C60.6859 151.864 57 164.868 57 178L75.264 178C75.264 166.551 78.4775 155.214 84.7209 144.636C90.9644 134.059 100.116 124.448 111.652 116.352C123.188 108.257 136.884 101.835 151.957 97.4533C167.03 93.0719 183.185 90.8169 199.5 90.8169C215.815 90.8169 231.97 93.0719 247.043 97.4533C262.116 101.835 275.812 108.257 287.348 116.352C298.884 124.448 308.036 134.059 314.279 144.636C320.523 155.214 323.736 166.551 323.736 178H342Z"/>
</mask>
<path d="M342 178C342 164.868 338.314 151.864 331.153 139.732C323.992 127.599 313.495 116.575 300.263 107.289C287.03 98.0035 271.321 90.6375 254.032 85.612C236.743 80.5866 218.213 78 199.5 78C180.787 78 162.257 80.5866 144.968 85.612C127.679 90.6375 111.97 98.0035 98.7373 107.289C85.5049 116.575 75.0085 127.599 67.8472 139.732C60.6859 151.864 57 164.868 57 178L75.264 178C75.264 166.551 78.4775 155.214 84.7209 144.636C90.9644 134.059 100.116 124.448 111.652 116.352C123.188 108.257 136.884 101.835 151.957 97.4533C167.03 93.0719 183.185 90.8169 199.5 90.8169C215.815 90.8169 231.97 93.0719 247.043 97.4533C262.116 101.835 275.812 108.257 287.348 116.352C298.884 124.448 308.036 134.059 314.279 144.636C320.523 155.214 323.736 166.551 323.736 178H342Z" fill="#D9D9D9" stroke="black" stroke-width="2" mask="url(#path-10-inside-1_20_134)"/>
</svg>
